<?xml version="1.0" encoding="UTF-8"?><svg id="Layer_2" xmlns="http://www.w3.org/2000/svg" viewBox="0 0 71.58 32.83"><defs><style>.cls-1{fill:none;stroke:#231f20;stroke-miterlimit:10;stroke-width:.25px;}.cls-2{fill:#231f20;}</style></defs><g id="Layer_1-2"><g><g><path class="cls-2" d="M10,21.86c0-.68-.01-1.27-.05-1.81h.92l.04,1.14h.05c.26-.78,.9-1.27,1.61-1.27,.12,0,.2,.01,.3,.04v1c-.11-.02-.22-.04-.36-.04-.74,0-1.27,.56-1.42,1.36-.02,.14-.05,.31-.05,.49v3.09h-1.04v-3.99Z"/><path class="cls-2" d="M17.08,25.86l-.08-.73h-.04c-.32,.46-.95,.86-1.77,.86-1.18,0-1.77-.83-1.77-1.67,0-1.4,1.25-2.17,3.49-2.16v-.12c0-.48-.13-1.34-1.32-1.34-.54,0-1.1,.17-1.51,.43l-.24-.7c.48-.31,1.18-.52,1.91-.52,1.77,0,2.21,1.21,2.21,2.37v2.17c0,.5,.02,1,.1,1.39h-.96Zm-.16-2.96c-1.15-.02-2.46,.18-2.46,1.31,0,.68,.46,1.01,1,1.01,.76,0,1.24-.48,1.4-.97,.04-.11,.06-.23,.06-.34v-1.01Z"/><path class="cls-2" d="M19.65,17.34h1.06v8.52h-1.06v-8.52Z"/><path class="cls-2" d="M22.48,17.34h1.06v8.52h-1.06v-8.52Z"/><path class="cls-2" d="M28.53,25.86l-.08-.73h-.04c-.32,.46-.95,.86-1.77,.86-1.18,0-1.77-.83-1.77-1.67,0-1.4,1.25-2.17,3.49-2.16v-.12c0-.48-.13-1.34-1.32-1.34-.54,0-1.1,.17-1.51,.43l-.24-.7c.48-.31,1.18-.52,1.91-.52,1.77,0,2.21,1.21,2.21,2.37v2.17c0,.5,.02,1,.1,1.39h-.96Zm-.16-2.96c-1.15-.02-2.46,.18-2.46,1.31,0,.68,.46,1.01,1,1.01,.76,0,1.24-.48,1.4-.97,.04-.11,.06-.23,.06-.34v-1.01Z"/><path class="cls-2" d="M31.1,21.62c0-.6-.01-1.09-.05-1.57h.94l.06,.96h.02c.29-.55,.96-1.09,1.92-1.09,.8,0,2.05,.48,2.05,2.47v3.47h-1.06v-3.35c0-.94-.35-1.71-1.34-1.71-.7,0-1.24,.49-1.42,1.08-.05,.13-.07,.31-.07,.49v3.49h-1.06v-4.23Z"/><path class="cls-2" d="M39.02,25.76v-8.08h1.14l2.59,4.09c.6,.95,1.07,1.8,1.45,2.63h.02c-.1-1.09-.12-2.07-.12-3.33v-3.38h.98v8.08h-1.06l-2.57-4.1c-.56-.9-1.1-1.82-1.51-2.7h-.04c.06,1.03,.08,2,.08,3.35v3.45h-.98Z"/><path class="cls-2" d="M49.43,17.44l-1.46,1.72h-.76l1.06-1.72h1.16Z"/><path class="cls-2" d="M50.43,24.48c.47,.29,1.15,.53,1.87,.53,1.07,0,1.69-.56,1.69-1.38,0-.76-.43-1.19-1.52-1.61-1.32-.47-2.13-1.15-2.13-2.29,0-1.26,1.04-2.19,2.61-2.19,.83,0,1.43,.19,1.79,.4l-.29,.85c-.26-.14-.8-.38-1.54-.38-1.1,0-1.52,.66-1.52,1.21,0,.76,.49,1.13,1.61,1.56,1.37,.53,2.06,1.19,2.06,2.37,0,1.25-.92,2.33-2.83,2.33-.78,0-1.63-.23-2.06-.52l.26-.88Z"/><path class="cls-2" d="M61.31,24.17c0,.6,.01,1.13,.05,1.58h-.94l-.06-.95h-.02c-.28,.47-.89,1.08-1.92,1.08-.91,0-2-.5-2-2.54v-3.39h1.05v3.21c0,1.1,.34,1.85,1.3,1.85,.71,0,1.2-.49,1.39-.96,.06-.16,.1-.35,.1-.54v-3.56h1.05v4.22Z"/><path class="cls-2" d="M63.07,21.76c0-.68-.01-1.27-.05-1.81h.92l.04,1.14h.05c.26-.78,.9-1.27,1.61-1.27,.12,0,.2,.01,.3,.04v1c-.11-.02-.22-.04-.36-.04-.74,0-1.27,.56-1.42,1.36-.02,.14-.05,.31-.05,.49v3.09h-1.04v-3.99Z"/><path class="cls-2" d="M67.46,23.04c.02,1.43,.94,2.01,1.99,2.01,.76,0,1.21-.13,1.61-.3l.18,.76c-.37,.17-1.01,.36-1.93,.36-1.79,0-2.85-1.18-2.85-2.93s1.03-3.13,2.72-3.13c1.89,0,2.4,1.67,2.4,2.73,0,.22-.02,.38-.04,.49h-4.08Zm3.09-.76c.01-.67-.28-1.71-1.46-1.71-1.07,0-1.54,.98-1.62,1.71h3.08Z"/></g><g><path class="cls-1" d="M6.94,32.7s-1.8,.27-2.6-1.95c-.11-.32-.21-.68-.27-1.11,0,0-1.75-1.2-1.43-4.41,.02-.2,.05-.41,.09-.63,0,0-1.63-2.97-.73-5.78,0,0-1.35-2.29-.44-5.02,0,0-1.46-7.32,1.38-7.62,0,0,1.75-.08,2.22,6.28s.95,8.61,.95,8.61l.59,5.01s1.26,6.15,.24,6.62Z"/><path class="cls-1" d="M4.35,30.75s1.19-5.3,.74-6.7c0,0-1.84,3.08-1.53,5.06"/><path class="cls-1" d="M2.66,25.03s1.2-1.19,1.82-6.33c0,0-2.53,3.05-2.34,4.43"/><path class="cls-1" d="M1.74,21.03s1.1-1.35,2.17-7.6c0,0-1.42,1.83-2.3,4.51"/><path class="cls-1" d="M1.31,14.84s1.95-2.03,1.38-5.95c0,0-1.22,2.94-1.32,3.74"/><path class="cls-1" d="M4.07,29.64s-.52-1.02,.3-2.78"/><path class="cls-1" d="M2.73,24.6s-.33-1.04,.57-2.95"/><path class="cls-1" d="M2,18.82s.15-1.77,.47-2.14"/><path class="cls-1" d="M1.56,13.79s.22-.73,.45-1.93"/></g><g><path class="cls-1" d="M.15,8.61s-.45-2.11,2.12-3.22c.37-.16,.79-.3,1.29-.4,0,0,1.3-2.16,5.12-2.01,.24,0,.49,.03,.76,.06,0,0,3.41-2.14,6.8-1.28,0,0,2.61-1.76,5.92-.88,0,0,8.57-2.25,9.13,1.09,0,0,.22,2.06-7.29,3.08s-10.14,1.75-10.14,1.75l-5.89,1.06S.79,9.78,.15,8.61Z"/><path class="cls-1" d="M2.28,5.39s6.37,1.03,7.99,.4c0,0-3.79-1.95-6.11-1.45"/><path class="cls-1" d="M8.94,2.98s1.5,1.34,7.63,1.7c0,0-3.8-2.77-5.42-2.46"/><path class="cls-1" d="M13.61,1.6s1.68,1.2,9.16,2.03c0,0-2.27-1.55-5.51-2.4"/><path class="cls-1" d="M20.92,.65s2.55,2.16,7.15,1.21c0,0-3.57-1.23-4.53-1.3"/><path class="cls-1" d="M3.57,4.98s1.17-.69,3.31,.15"/><path class="cls-1" d="M9.45,3.03s1.2-.47,3.54,.46"/><path class="cls-1" d="M16.25,1.75s2.11,.05,2.57,.41"/><path class="cls-1" d="M22.17,.87s.88,.21,2.32,.4"/></g><g><path class="cls-1" d="M3.83,16.65s-.37-1.77,1.78-2.7c.31-.13,.67-.25,1.09-.34,0,0,1.09-1.81,4.29-1.68,.2,0,.41,.02,.63,.05,0,0,2.85-1.8,5.7-1.07,0,0,2.19-1.48,4.96-.74,0,0,7.18-1.89,7.65,.91,0,0,.19,1.73-6.11,2.58s-8.5,1.47-8.5,1.47l-4.94,.89s-6.03,1.63-6.56,.64Z"/><path class="cls-1" d="M5.61,13.95s5.34,.86,6.7,.33c0,0-3.17-1.64-5.12-1.22"/><path class="cls-1" d="M11.19,11.93s1.26,1.12,6.4,1.42c0,0-3.18-2.33-4.55-2.06"/><path class="cls-1" d="M15.11,10.78s1.41,1.01,7.68,1.7c0,0-1.91-1.3-4.62-2.01"/><path class="cls-1" d="M21.23,9.98s2.13,1.81,6,1.01c0,0-2.99-1.03-3.79-1.09"/><path class="cls-1" d="M6.7,13.61s.98-.58,2.78,.13"/><path class="cls-1" d="M11.62,11.97s1.01-.39,2.96,.39"/><path class="cls-1" d="M17.32,10.9s1.77,.04,2.15,.34"/><path class="cls-1" d="M22.29,10.16s.73,.17,1.95,.33"/></g></g></g></svg>
